<svg width="36" height="37" viewBox="0 0 36 37" fill="none" xmlns="http://www.w3.org/2000/svg">
<g clip-path="url(#clip0)">
<path d="M35.8311 12.8729L30.6178 9.19045V3.81159C30.5655 3.27876 30.1551 2.85111 29.6248 2.77722H6.7856C6.25539 2.85119 5.84484 3.27876 5.79257 3.81159V9.14903L0.372376 12.8728C0.157678 13.0286 0.0216995 13.2704 0 13.5348V33.1881C0.0704837 33.7275 0.49497 34.1521 1.03437 34.2225H35.376C35.8311 34.2225 35.9966 33.6846 35.9966 33.1881V13.5349C35.9966 13.2866 36.038 13.0383 35.8311 12.8729ZM30.6178 11.1764L34.1761 13.6175L30.6178 16.3069V11.1764ZM7.44759 4.43224H28.9628V17.5897L18.2051 25.6992L7.44751 17.5897V4.43224H7.44759ZM5.79257 11.1351V16.3484L2.23425 13.6176L5.79257 11.1351ZM1.65502 15.314L13.2402 24.0856L1.65502 31.9055V15.314ZM3.64108 32.5675L14.6469 25.1613L17.5846 27.3956C17.7509 27.5241 17.9537 27.5966 18.1638 27.6025C18.3293 27.6025 18.4121 27.5197 18.5775 27.3956L21.6393 25.0372L32.7693 32.5675H3.64108ZM34.3416 31.6159L23.0048 24.0028L34.3416 15.314V31.6159Z" fill="#0E3F8B"/>
<path d="M11.5852 9.81103H15.309C15.766 9.81103 16.1365 9.44055 16.1365 8.98352C16.1365 8.52648 15.766 8.15601 15.309 8.15601H11.5852C11.1282 8.15601 10.7577 8.52648 10.7577 8.98352C10.7577 9.44055 11.1282 9.81103 11.5852 9.81103Z" fill="#0E3F8B"/>
<path d="M11.5852 13.5349H24.8254C25.2824 13.5349 25.6529 13.1644 25.6529 12.7074C25.6529 12.2504 25.2824 11.8799 24.8254 11.8799H11.5852C11.1282 11.8799 10.7577 12.2504 10.7577 12.7074C10.7577 13.1644 11.1282 13.5349 11.5852 13.5349Z" fill="#0E3F8B"/>
<path d="M25.6528 16.4311C25.6528 15.9741 25.2823 15.6036 24.8253 15.6036H11.5852C11.1282 15.6036 10.7577 15.9741 10.7577 16.4311C10.7577 16.8882 11.1282 17.2587 11.5852 17.2587H24.8254C25.2823 17.2587 25.6528 16.8882 25.6528 16.4311Z" fill="#0E3F8B"/>
</g>
<defs>
<clipPath id="clip0">
<rect width="36" height="36" fill="white" transform="translate(0 0.5)"/>
</clipPath>
</defs>
</svg>
