<svg width="36" height="37" viewBox="0 0 36 37" fill="none" xmlns="http://www.w3.org/2000/svg">
<path d="M24.1335 5.5H11.8665C8.016 5.5 5 8.516 5 12.3665V24.6335C5 28.484 8.016 31.5 11.8665 31.5H24.1335C27.984 31.5 31 28.484 31 24.6335V12.3665C31 8.516 27.9832 5.5 24.1335 5.5ZM29.3226 24.6335C29.3226 27.5438 27.043 29.8226 24.1335 29.8226H11.8665C8.95703 29.8226 6.67742 27.543 6.67742 24.6335V12.3665C6.67742 9.45703 8.95703 7.17742 11.8665 7.17742H24.1335C27.0438 7.17742 29.3226 9.45703 29.3226 12.3665V24.6335Z" fill="#00ACEE"/>
<path d="M26.1766 12.1383C25.9074 11.9412 25.5468 11.9244 25.2591 12.0922C24.9723 12.2608 24.3365 12.3438 23.8266 12.4109C23.7209 12.4251 23.6169 12.4386 23.5163 12.4528C22.8025 11.8607 21.8908 11.5286 20.9506 11.5286C18.8329 11.5286 17.0951 13.1674 16.9718 15.229C15.0512 14.9052 13.2924 13.9038 12.0461 12.3991C11.8607 12.1744 11.573 12.0645 11.2828 12.1022C10.9943 12.1425 10.7477 12.3295 10.6312 12.5962C10.5775 12.7187 10.1095 13.8702 10.1095 16.7185C10.1095 19.1851 12.0561 20.9976 13.3914 21.9512C12.478 22.3664 11.4254 22.519 10.4257 22.4083C10.0348 22.3664 9.66916 22.5962 9.54 22.9644C9.41084 23.3334 9.55342 23.7427 9.88387 23.9515C11.4606 24.9462 13.2832 25.4721 15.1552 25.4721C21.167 25.4721 24.8054 20.7493 24.9404 16.0928C25.1132 15.842 25.4428 15.3539 25.9997 14.4976C26.2228 14.1529 26.4098 13.4098 26.5012 12.998C26.5742 12.6726 26.4459 12.3346 26.1766 12.1383ZM23.4274 15.3304C23.3242 15.473 23.268 15.6458 23.268 15.8219C23.268 19.1323 20.751 23.7947 15.156 23.7947C14.6503 23.7947 14.1487 23.7486 13.6572 23.658C14.3131 23.4097 14.9329 23.0633 15.5024 22.6247C15.7305 22.4494 15.8521 22.1676 15.8253 21.8816C15.7985 21.5956 15.6265 21.3423 15.369 21.2123C15.333 21.1939 11.7877 19.3294 11.7877 16.7193C11.7877 15.8446 11.8347 15.1568 11.8968 14.6335C13.5432 16.0509 15.6383 16.8988 17.8432 17.0079C17.86 17.0087 17.8776 17.0095 17.8936 17.0087C18.3817 16.9944 18.7406 16.6363 18.7406 16.17C18.7406 16.0542 18.7172 15.9444 18.6744 15.8437C18.6534 15.7179 18.6425 15.5913 18.6425 15.4646C18.6425 14.2191 19.6775 13.206 20.9506 13.206C21.5897 13.206 22.2045 13.4677 22.6381 13.9231C22.8361 14.1294 23.1254 14.2225 23.4047 14.168C23.5951 14.1319 23.8148 14.1034 24.0455 14.0732C24.1277 14.0623 24.2107 14.0514 24.2954 14.0397C23.6656 14.9991 23.4383 15.3153 23.4274 15.3304Z" fill="#00ACEE"/>
</svg>
