<svg width="395" height="451" viewBox="0 0 395 451" fill="none" xmlns="http://www.w3.org/2000/svg">
<path opacity="0.43" d="M263.369 100.033C236.431 118.087 215.988 148.052 209.334 181.892C202.679 215.733 210.38 252.991 230.872 279.318C254.044 309.083 292.937 322.941 327.636 313.798C337.708 311.141 347.471 306.655 355.74 299.801C367.216 290.279 375.326 276.611 381.323 262.273C395.091 229.351 398.618 191.394 391.206 156.095C386.872 135.472 378.583 115.31 364.566 100.762C337.16 72.337 293.236 80.0204 263.369 100.033Z" fill="#889DBE"/>
<path d="M391.226 441.758C391.226 442.667 389.96 443.547 387.609 444.376C379.899 447.093 360.442 449.302 335.337 450.341C330.027 450.55 324.468 450.72 318.7 450.84C313.35 450.95 307.851 451 302.212 451C258.976 451 222.942 447.793 214.893 443.537C213.787 442.957 213.209 442.368 213.209 441.748C213.209 441.019 214.006 440.319 215.51 439.65C220.501 437.412 233.283 435.493 250.707 434.205C252.202 434.085 253.746 433.985 255.32 433.885C261.506 433.475 268.191 433.156 275.264 432.936C283.752 432.646 292.808 432.496 302.192 432.496C322.286 432.496 340.826 433.185 355.71 434.354C370.683 435.533 381.971 437.192 387.48 439.1C389.931 439.95 391.226 440.849 391.226 441.758Z" fill="#889DBE"/>
<path d="M283.473 58.9885C283.473 58.9885 231.938 68.7601 228.103 57.8995C224.267 47.0389 221.886 11.9192 228.471 6.67372C235.056 1.42825 315.283 -4.54659 321.131 5.22497C326.979 14.9965 327.347 51.0154 321.858 53.9129C316.379 56.8104 292.439 58.9785 292.439 58.9785L293.904 69.8392L283.473 58.9885Z" fill="#0E3F8B"/>
<path d="M274.817 36.8876L274.478 36.9675C274.1 36.9675 273.811 36.7977 273.602 36.428C272.974 35.1391 272.635 33.9002 272.635 32.7012C272.635 29.6738 274.648 27.8554 276.74 25.9471C277.746 24.9979 278.453 24.2485 278.832 23.709C279.211 23.1695 279.42 22.59 279.42 22.0504C279.42 20.4318 278.035 19.6425 276.531 19.6425C274.857 19.6425 273.183 20.5118 271.888 21.5109C271.679 21.6308 271.51 21.7207 271.301 21.7207C271.051 21.7207 270.842 21.6008 270.673 21.351L269.208 19.1929C269.079 19.073 269.039 18.8632 269.039 18.6534C269.039 18.3636 269.169 18.1138 269.378 17.904C271.639 16.0356 274.06 15.1264 276.66 15.1264C280.924 15.1264 284.192 17.6542 284.192 21.9605C284.192 24.6981 282.897 26.4366 281.014 28.305L280.217 29.0943C279.25 29.9636 278.583 30.673 278.165 31.2125C277.746 31.752 277.537 32.3315 277.537 32.911C277.537 33.4506 277.666 34.07 277.955 34.7794C277.995 34.9493 278.035 35.0692 278.035 35.1491C278.035 35.269 277.995 35.4389 277.906 35.5687C277.776 35.6886 277.656 35.8185 277.527 35.8585L274.817 36.8876ZM272.097 43.2621C272.097 41.3538 273.642 39.8251 275.574 39.8251C277.537 39.8251 279.051 41.3138 279.051 43.2621C279.051 45.2104 277.547 46.6991 275.574 46.6991C273.642 46.6991 272.097 45.1705 272.097 43.2621Z" fill="#FEE9E8"/>
<path d="M303.797 431.757C304.206 434.035 271.161 449.351 269.716 447.283C268.282 445.215 283.554 426.781 283.554 426.781L281.502 421.426L279.429 416.01L296.365 409.176C296.365 409.176 297.92 413.652 299.603 418.628C301.506 424.263 303.588 430.548 303.797 431.757Z" fill="#FF9C87"/>
<path d="M303.797 431.757C304.206 434.035 271.161 449.351 269.716 447.283C268.282 445.215 283.554 426.781 283.554 426.781L281.502 421.426C281.791 420.886 282.209 420.466 282.787 420.267C283.524 420.007 284.351 420.247 284.998 420.666C285.656 421.096 286.154 421.715 286.632 422.325C287.12 422.924 287.589 423.504 288.077 424.103C290.358 421.386 293.556 418.638 297.093 418.358C297.949 418.288 298.806 418.378 299.603 418.628C301.506 424.263 303.588 430.548 303.797 431.757Z" fill="#0E3F8B"/>
<path d="M344.305 443.477C343.847 445.745 307.484 447.593 306.906 445.135C306.328 442.677 327.359 431.287 327.359 431.287L327.449 425.552L327.538 419.757L345.799 419.747C345.799 419.747 345.58 424.483 345.291 429.728C344.962 435.673 344.554 442.268 344.305 443.477Z" fill="#FF9C87"/>
<path d="M344.305 443.477C343.847 445.745 307.484 447.593 306.906 445.135C306.328 442.677 327.359 431.287 327.359 431.287L327.449 425.552C327.917 425.162 328.455 424.923 329.072 424.963C329.849 425.003 330.537 425.522 330.975 426.162C331.423 426.801 331.653 427.56 331.882 428.31C332.111 429.049 332.33 429.758 332.559 430.498C335.687 428.829 339.682 427.48 343.059 428.54C343.886 428.789 344.634 429.199 345.291 429.728C344.962 435.673 344.554 442.268 344.305 443.477Z" fill="#0E3F8B"/>
<path d="M281.243 218.071C281.243 218.071 238.913 327.197 243.794 347.879C248.676 368.561 277.985 418.358 277.985 418.358L303.489 409.646L301.317 404.75L278.792 340.525L310.811 292.087L319.219 349.508L324.101 421.076C324.101 421.076 341.196 425.702 350.152 422.435C350.152 422.435 359.377 295.344 355.85 276.84C352.324 258.336 340.11 219.15 340.11 219.15L281.243 218.071Z" fill="#433D3B"/>
<path d="M298.965 258.346L310.81 292.087C310.81 292.087 318.501 338.167 320.673 369.371C322.845 400.574 324.11 421.076 324.11 421.076" stroke="#0E1219" stroke-width="0.5334" stroke-miterlimit="10" stroke-linecap="round" stroke-linejoin="round"/>
<path d="M335.117 220.949C344.492 253.501 347.301 287.611 347.72 321.492C348.138 355.373 346.225 389.243 346.395 423.124" stroke="#0E1219" stroke-width="0.5334" stroke-miterlimit="10" stroke-linecap="round" stroke-linejoin="round"/>
<path d="M307.972 283.525C295.081 299.251 283.943 316.426 274.837 334.621C274.319 335.66 273.791 336.749 273.741 337.908C273.701 338.957 274.06 339.976 274.409 340.965C282.618 364.235 290.827 387.495 299.036 410.765" stroke="#0E1219" stroke-width="0.5334" stroke-miterlimit="10" stroke-linecap="round" stroke-linejoin="round"/>
<path d="M244.881 81.0495C244.881 81.0495 246.983 77.3327 246.913 73.5659C246.774 65.5429 244.881 66.2223 246.913 63.085C248.945 59.9577 260.073 48.5276 261.976 49.207C263.879 49.8864 257.224 57.5098 257.224 57.5098C257.224 57.5098 269.567 54.922 267.396 59.6879C267.396 59.6879 270.514 60.777 267.934 63.085C267.934 63.085 269.299 64.6536 267.256 65.3031C263.002 66.6619 260.203 68.1106 260.203 68.1106C260.203 68.1106 263.59 76.1337 258.44 82.808L244.881 81.0495Z" fill="#FF9C87"/>
<path d="M252.004 61.5963C252.004 61.5963 254.993 58.1992 257.224 57.5098C259.027 56.9603 264.038 56.2809 266.489 57.2101C267.396 57.5498 267.884 58.5989 267.495 59.4881C267.465 59.5581 267.436 59.618 267.396 59.678" stroke="#0E1219" stroke-width="0.3359" stroke-miterlimit="10" stroke-linecap="round" stroke-linejoin="round"/>
<path d="M254.414 63.5346C254.414 63.5346 258.399 60.5472 260.86 60.0676C263.47 59.558 268.76 59.0784 268.999 61.2566" stroke="#0E1219" stroke-width="0.3359" stroke-miterlimit="10" stroke-linecap="round" stroke-linejoin="round"/>
<path d="M255.699 66.2523C255.699 66.2523 259.365 63.4947 262.653 63.2549C265.94 63.0151 267.534 62.7753 268.152 63.4248" stroke="#0E1219" stroke-width="0.3359" stroke-miterlimit="10" stroke-linecap="round" stroke-linejoin="round"/>
<path d="M328.724 94.4579C331.264 95.7867 333.586 97.5552 335.478 99.7433C338.886 103.69 340.081 108.865 340.051 113.981C340.031 116.928 339.344 119.836 339.264 122.783C339.214 124.622 339.503 126.54 340.539 128.049C342.024 130.197 344.514 130.886 346.706 132.075C349.077 133.364 351.348 134.933 352.992 137.111C356.599 141.887 356.947 149.071 354.875 154.546C353.829 157.314 352.116 159.881 349.715 161.62C346.975 163.598 343.538 164.378 340.161 164.597C329.73 165.267 319.24 163.718 308.959 162.129C301.487 160.97 293.946 159.751 286.832 157.074C280.735 154.786 275.416 151.399 273.742 144.635C271.799 136.771 276.422 127.929 284.133 125.341C286.603 124.512 289.562 124.242 291.296 122.054C293.467 119.306 292.431 115.41 292.083 112.253C291.435 106.507 292.78 100.233 297.392 96.4062C303.988 90.9409 311.36 90.5812 319.439 91.5904C322.637 91.98 325.835 92.9392 328.724 94.4579Z" fill="#240A19"/>
<path d="M329.172 127.05L326.961 144.595L305.801 144.994L306.528 139.639L307.156 134.933L327.26 127.729L329.172 127.05Z" fill="#FF9C87"/>
<path d="M327.259 127.729C327.428 132.025 325.177 136.302 321.66 138.77C318.044 141.317 313.242 141.987 308.978 140.798C308.091 140.548 307.215 140.208 306.527 139.639L307.155 134.943L327.259 127.729Z" fill="#FF836D"/>
<path d="M330.627 117.418C332.35 116.439 334.363 116.409 335.917 118.367C336.146 118.647 336.325 118.967 336.465 119.306C337.302 121.315 336.843 124.012 335.269 125.551C333.795 126.99 331.155 127.719 329.182 127.06C327.12 126.37 326.702 124.172 327.08 122.254C327.439 120.376 328.884 118.407 330.627 117.418Z" fill="#FF9C87"/>
<path d="M333.415 120.805C332.239 121.175 331.263 122.154 330.904 123.333" stroke="#0E1219" stroke-width="0.5" stroke-miterlimit="10" stroke-linecap="round" stroke-linejoin="round"/>
<path d="M296.833 107.836C296.833 107.836 296.843 107.836 296.873 107.846C298.358 99.4936 305.929 93.149 315.025 93.149C315.343 93.149 315.652 93.159 315.961 93.179C325.704 93.6486 333.455 101.402 333.455 110.884C333.455 112.842 333.126 114.72 332.518 116.479C332.01 117.968 331.293 119.366 330.406 120.655C329.331 132.055 324.15 138.85 308.29 137.161C292.201 135.443 296.833 107.836 296.833 107.836Z" fill="#FF9C87"/>
<path d="M312.535 115.571C312.495 116.57 313.262 117.409 314.248 117.449C315.234 117.489 316.061 116.71 316.101 115.711C316.141 114.711 315.374 113.872 314.388 113.832C313.401 113.792 312.565 114.572 312.535 115.571Z" fill="#240A19"/>
<path d="M299.423 114.271C299.384 115.19 300.091 115.959 300.998 115.999C301.904 116.039 302.671 115.32 302.701 114.401C302.741 113.481 302.034 112.712 301.127 112.672C300.22 112.632 299.453 113.352 299.423 114.271Z" fill="#240A19"/>
<path d="M305.161 113.981C304.444 115.839 303.936 117.768 303.637 119.736C303.468 120.865 304.085 121.974 305.151 122.364C305.161 122.364 305.161 122.364 305.171 122.374" stroke="#0E1219" stroke-width="0.5" stroke-miterlimit="10" stroke-linecap="round" stroke-linejoin="round"/>
<path d="M307.731 122.234C307.621 122.084 307.482 121.924 307.323 121.824C307.193 121.744 307.034 121.704 306.884 121.754C306.625 121.844 306.565 122.164 306.516 122.404" stroke="#0E1219" stroke-width="0.5" stroke-miterlimit="10" stroke-linecap="round" stroke-linejoin="round"/>
<path d="M312.693 110.464C312.454 110.644 312.235 110.874 312.235 111.133C312.225 111.403 312.454 111.653 312.753 111.793C313.042 111.933 313.39 111.983 313.729 112.013C314.735 112.103 315.851 111.983 316.528 111.383C316.638 111.293 316.728 111.183 316.768 111.063C316.847 110.814 316.688 110.544 316.439 110.374C315.303 109.595 313.759 109.675 312.693 110.464Z" fill="#240A19"/>
<path d="M299.712 108.436C299.483 108.626 299.264 108.865 299.264 109.145C299.254 109.435 299.483 109.695 299.762 109.835C300.041 109.984 300.38 110.034 300.709 110.064C301.685 110.154 302.771 110.034 303.428 109.405C303.528 109.305 303.618 109.195 303.657 109.065C303.737 108.805 303.578 108.516 303.339 108.336C302.243 107.517 300.738 107.607 299.712 108.436Z" fill="#240A19"/>
<path d="M307.266 125.591C308.192 124.172 310.075 123.463 311.699 123.912" stroke="#0E1219" stroke-width="0.5" stroke-miterlimit="10" stroke-linecap="round" stroke-linejoin="round"/>
<path d="M314.03 92.3307C313.353 94.9984 313.592 97.856 314.429 100.474C315.265 103.101 316.66 105.509 318.284 107.737C320.775 111.164 323.943 114.282 327.908 115.76C327.868 117.009 328.087 118.248 328.177 119.497C328.187 119.567 328.187 119.637 328.236 119.697C328.336 119.817 328.525 119.747 328.665 119.677C330.498 118.668 332.321 117.659 334.154 116.65C335.081 114.771 335.001 112.693 335.071 110.595C335.12 109.306 335.16 108.007 335.001 106.718C334.533 103.141 332.381 99.9142 329.571 97.6561C326.762 95.3881 323.345 94.0093 319.868 93.0801C317.975 92.5905 315.983 92.2008 314.03 92.3307Z" fill="#240A19"/>
<path d="M304.574 139.419L328.454 138.88C328.454 138.88 328.454 143.775 329.809 145.953C331.164 148.132 345.549 158.473 348.259 166.905C350.969 175.338 340.12 220.239 340.12 220.239C340.12 220.239 299.414 227.863 281.243 218.061C281.243 218.061 272.555 197.109 275.544 173.979C275.544 173.979 226.699 151.119 222.086 135.333C217.474 119.546 244.063 78.182 244.063 78.182L259.804 83.3575C259.804 83.3575 245.697 118.467 246.783 121.455C247.869 124.452 286.941 144.045 293.177 145.404C299.424 146.773 302.452 145.894 304.574 139.419Z" fill="#FEE9E8"/>
<path d="M312.174 176.887L328.094 171.991L333.294 186.369L346.863 165.277C346.863 165.277 351.744 169.083 349.981 192.084C348.217 215.084 345.099 225.695 332.617 227.193C312.742 229.571 312.174 176.887 312.174 176.887Z" fill="#FEE9E8"/>
<path d="M279.429 163.638C279.429 163.638 272.017 179.784 275.264 195.93C278.522 212.076 281.232 218.061 281.232 218.061" stroke="#0E1219" stroke-width="0.5334" stroke-miterlimit="10" stroke-linecap="round" stroke-linejoin="round"/>
<path d="M315.124 175.348C315.124 175.348 313.002 172.301 312.275 169.343C311.538 166.386 312.275 163.159 312.275 163.159C312.275 163.159 310.522 156.045 315.493 153.277C315.493 153.277 315.214 149.031 316.688 148.201C318.163 147.372 318.9 152.268 318.9 152.268C318.9 152.268 318.531 140.638 320.185 140.078C321.839 139.529 322.207 152.268 322.945 153.837C323.682 155.405 326.999 160.581 326.81 162.239C326.631 163.898 324.967 172.76 324.967 172.76L315.124 175.348Z" fill="#FF9C87"/>
<path d="M319.388 151.758C319.388 151.758 316.349 152.248 314.695 153.767C313.36 154.996 312.524 156.684 312.165 158.453C311.896 159.742 311.438 162.729 312.803 163.578C313.49 163.998 314.167 163.628 314.426 162.909" stroke="#0E1219" stroke-width="0.3419" stroke-miterlimit="10" stroke-linecap="round" stroke-linejoin="round"/>
<path d="M320.075 153.277C320.075 153.277 315.791 154.246 314.895 157.294C313.998 160.341 313.928 163.248 315.383 163.458C316.837 163.668 317.106 162.07 317.106 162.07" stroke="#0E1219" stroke-width="0.3419" stroke-miterlimit="10" stroke-linecap="round" stroke-linejoin="round"/>
<path d="M321.111 154.876C321.111 154.876 319.577 154.326 318.212 157.573C316.797 160.93 316.767 162.729 318.043 163.219C318.939 163.568 319.826 161.13 320.374 159.881" stroke="#0E1219" stroke-width="0.3419" stroke-miterlimit="10" stroke-linecap="round" stroke-linejoin="round"/>
<path d="M320.144 160.311C319.735 161.34 319.337 162.369 319.098 163.438C318.859 164.517 318.789 165.646 319.068 166.716" stroke="#0E1219" stroke-width="0.3419" stroke-miterlimit="10" stroke-linecap="round" stroke-linejoin="round"/>
<path d="M339.214 202.555L328.266 171.801L312.525 176.337C312.525 176.337 315.016 213.845 323.285 223.097" stroke="#0E1219" stroke-width="0.5334" stroke-miterlimit="10" stroke-linecap="round" stroke-linejoin="round"/>
<path d="M368.91 145.084C369.777 143.386 371.849 142.736 373.563 143.615C375.316 144.515 375.973 146.533 375.087 148.261C374.2 149.99 372.178 150.629 370.434 149.73C368.721 148.851 368.043 146.783 368.91 145.084ZM374.23 140.648L373.891 140.568C373.553 140.398 373.373 140.118 373.353 139.689C373.383 138.26 373.652 137.001 374.19 135.932C375.565 133.244 378.185 132.535 380.915 131.796C382.24 131.406 383.216 131.066 383.794 130.757C384.372 130.447 384.82 130.027 385.069 129.548C385.806 128.109 384.94 126.78 383.595 126.091C382.11 125.321 380.217 125.331 378.613 125.621C378.374 125.641 378.185 125.631 377.996 125.541C377.777 125.421 377.647 125.221 377.607 124.922L377.288 122.334C377.229 122.164 377.288 121.964 377.388 121.774C377.518 121.515 377.747 121.355 378.026 121.265C380.885 120.645 383.455 120.935 385.766 122.124C389.562 124.072 391.315 127.819 389.353 131.656C388.108 134.094 386.165 135.043 383.634 135.842L382.569 136.182C381.313 136.512 380.397 136.841 379.779 137.121C379.161 137.411 378.713 137.83 378.444 138.35C378.195 138.83 378.026 139.439 377.966 140.198C377.926 140.368 377.906 140.498 377.866 140.568C377.807 140.678 377.697 140.808 377.567 140.878C377.398 140.928 377.229 140.988 377.099 140.968L374.23 140.648Z" fill="#0E3F8B"/>
<path d="M248.327 195.341L248.078 195.581C247.749 195.77 247.421 195.77 247.052 195.551C245.866 194.751 244.96 193.842 244.362 192.803C242.858 190.185 243.685 187.597 244.541 184.9C244.94 183.571 245.179 182.572 245.239 181.912C245.299 181.253 245.189 180.653 244.92 180.184C244.113 178.785 242.529 178.795 241.224 179.554C239.779 180.394 238.763 181.982 238.136 183.501C238.016 183.711 237.917 183.871 237.727 183.971C237.508 184.1 237.269 184.091 237 183.961L234.659 182.832C234.489 182.782 234.35 182.632 234.24 182.452C234.091 182.202 234.081 181.922 234.161 181.643C235.187 178.895 236.831 176.887 239.082 175.588C242.778 173.45 246.863 173.999 249.015 177.736C250.379 180.104 250.12 182.262 249.423 184.82L249.124 185.899C248.726 187.138 248.497 188.077 248.397 188.756C248.307 189.436 248.407 190.035 248.696 190.545C248.965 191.015 249.383 191.484 249.991 191.954C250.11 192.074 250.21 192.164 250.25 192.233C250.31 192.343 250.359 192.503 250.35 192.653C250.3 192.823 250.26 192.993 250.17 193.093L248.327 195.341ZM249.154 202.225C248.208 200.576 248.775 198.468 250.449 197.509C252.153 196.52 254.205 197.059 255.171 198.748C256.138 200.436 255.58 202.485 253.876 203.464C252.203 204.433 250.1 203.883 249.154 202.225Z" fill="#0E3F8B"/>
<path d="M181.421 436.755C181.421 437.665 180.156 438.544 177.805 439.374C170.094 442.092 150.637 444.301 125.532 445.34C120.222 445.55 114.663 445.72 108.895 445.84C103.546 445.95 98.0463 446 92.4077 446C49.1712 446 13.1375 442.792 5.08793 438.534C3.98211 437.955 3.4043 437.365 3.4043 436.745C3.4043 436.016 4.20128 435.316 5.70559 434.646C10.6967 432.408 23.4784 430.489 40.9025 429.2C42.3968 429.08 43.941 428.98 45.515 428.88C51.7016 428.47 58.3863 428.15 65.4596 427.93C73.9475 427.64 83.0032 427.49 92.3877 427.49C112.482 427.49 131.022 428.18 145.905 429.349C160.879 430.529 172.166 432.188 177.675 434.097C180.126 434.936 181.421 435.836 181.421 436.755Z" fill="#889DBE"/>
<path opacity="0.43" d="M131.631 100.216C158.569 118.276 179.012 148.249 185.666 182.1C192.321 215.951 184.62 253.219 164.128 279.555C140.956 309.328 102.063 323.19 67.3639 314.045C57.292 311.386 47.5289 306.899 39.2602 300.043C27.7836 290.518 19.6742 276.846 13.6769 262.504C-0.0910006 229.573 -3.61766 191.604 3.79431 156.295C8.12792 135.666 16.4166 115.498 30.4335 100.946C57.8498 72.5121 101.774 80.1977 131.631 100.216Z" fill="#0E3F8B"/>
<path d="M74.9446 404.084C74.9446 404.084 74.6856 409.021 74.3867 414.458C74.0281 420.794 73.6196 427.82 73.4503 428.51C73.1614 429.819 38.363 446.44 37.1775 443.831C35.992 441.223 49.0725 423.303 49.9691 421.014C50.3975 419.895 50.8358 415.747 51.1845 411.779C51.5232 407.652 51.7623 403.744 51.7623 403.744L74.9446 404.084Z" fill="#FEE9E8"/>
<path d="M74.3867 414.458C74.0281 420.794 73.6196 427.82 73.4503 428.51C73.1614 429.819 38.363 446.44 37.1775 443.831C35.992 441.223 49.0725 423.303 49.9691 421.014C50.3975 419.895 50.8358 415.747 51.1845 411.779C51.9416 411.5 52.7685 411.49 53.4957 411.869C55.3288 412.829 55.3786 415.387 56.2653 417.256C62.1331 416.877 68.5189 416.077 74.3867 414.458Z" fill="#324D63"/>
<path d="M116.369 406.003L116.877 415.117L117.754 430.719C117.754 430.719 159.566 436.835 160.393 435.166C161.229 433.487 139.083 417.106 139.083 417.106L138.505 413.019L137.41 405.163L116.369 406.003Z" fill="#FEE9E8"/>
<path d="M116.887 415.127L117.763 430.729C117.763 430.729 159.575 436.845 160.402 435.176C161.239 433.497 139.093 417.116 139.093 417.116L138.515 413.029C137.738 412.809 136.901 412.899 136.363 413.488C135.506 414.428 135.915 415.927 135.526 417.126C134.819 416.707 133.623 416.886 132.807 416.797C127.497 416.237 122.187 415.677 116.887 415.127Z" fill="#324D63"/>
<path d="M76.46 94.1898C73.9096 95.4491 71.8474 97.6479 70.7515 100.276C69.6557 102.905 69.5361 105.923 70.4327 108.632C70.8711 109.971 71.5485 111.22 72.2559 112.439C75.7925 118.546 80.2158 124.133 85.3364 128.98C86.3725 123.703 87.2292 118.596 87.1993 113.219C87.1794 109.341 86.6614 105.403 85.0375 101.875C83.4236 98.3475 80.0863 95.549 76.46 94.1898Z" fill="#240A19"/>
<path d="M76.5186 94.2698C75.9309 92.041 76.5784 89.5225 78.1624 87.8434C79.7464 86.1744 82.2171 85.3948 84.4686 85.8745C84.9468 83.316 87.009 81.2472 89.3601 80.1578C94.2615 77.8691 100.558 79.0584 104.304 82.9762C106.067 82.3865 108.229 82.1467 110.072 82.4165C111.915 82.6863 113.698 83.5558 114.874 84.995C116.697 87.2138 116.826 90.5219 115.621 93.1304C114.415 95.7289 112.054 97.6678 109.454 98.8671C106.854 100.066 104.005 100.606 101.175 101.026C97.9775 101.506 94.7198 101.845 91.5119 101.466C85.9928 100.816 81.0017 97.5779 76.5186 94.2698Z" fill="#240A19"/>
<path d="M81.6895 123.613L84.0704 139.084L106.575 138.455L105.25 133.298L104.105 128.78L83.6321 124.063L81.6895 123.613Z" fill="#FF836D"/>
<path opacity="0.33" d="M83.6328 124.063C83.9616 128.28 86.6514 132.198 90.3674 134.207C94.1929 136.276 98.9549 136.376 102.99 134.717C103.826 134.377 104.643 133.937 105.251 133.298L104.095 128.78L83.6328 124.063Z" fill="#FF836D"/>
<path d="M111.069 101.106C111.069 101.106 111.059 101.116 111.039 101.116C108.628 93.1304 100.509 87.8035 91.6224 88.8529C91.3136 88.8928 91.0048 88.9328 90.7059 88.9828C81.2417 90.5619 74.5669 99.0371 75.6528 108.312C75.882 110.221 76.41 112.02 77.2169 113.669C77.8844 115.068 78.7511 116.347 79.7573 117.507C82.1184 128.52 90.6561 135.187 103.488 131.589C119.099 127.201 111.069 101.106 111.069 101.106Z" fill="#FF836D"/>
<path d="M96.6231 110.481C96.7725 111.45 96.125 112.359 95.1686 112.519C94.2122 112.669 93.3056 112.01 93.1562 111.04C93.0068 110.071 93.6543 109.161 94.6107 109.001C95.5671 108.841 96.4736 109.511 96.6231 110.481Z" fill="#240A19"/>
<path d="M109.275 107.692C109.414 108.582 108.816 109.421 107.93 109.561C107.043 109.701 106.216 109.091 106.077 108.202C105.937 107.312 106.535 106.473 107.422 106.333C108.308 106.183 109.135 106.793 109.275 107.692Z" fill="#240A19"/>
<path d="M102.082 108.092C103.676 109.141 105.29 110.63 106.087 112.409C106.844 114.078 106.147 115.488 104.583 116.277" stroke="#0E1219" stroke-width="0.4918" stroke-miterlimit="10" stroke-linecap="round" stroke-linejoin="round"/>
<path d="M102.07 116.428C102.16 116.268 102.28 116.098 102.419 115.978C102.539 115.878 102.688 115.817 102.837 115.857C103.096 115.917 103.196 116.228 103.266 116.448" stroke="#0E1219" stroke-width="0.4918" stroke-miterlimit="10" stroke-linecap="round" stroke-linejoin="round"/>
<path d="M104.404 119.646C103.358 118.866 101.814 118.846 100.758 119.596" stroke="#0E1219" stroke-width="0.3848" stroke-miterlimit="10" stroke-linecap="round" stroke-linejoin="round"/>
<path d="M90.3872 107.402C90.3773 107.752 90.5167 108.122 90.7956 108.332C91.1344 108.582 91.5926 108.572 92.011 108.502C93.1268 108.312 94.1829 107.782 95.0197 107.013C95.2687 106.783 95.5078 106.493 95.5178 106.153C95.5377 105.014 93.7146 104.224 92.7682 104.524C91.7222 104.864 90.4071 106.303 90.3872 107.402Z" fill="#240A19"/>
<path d="M109.714 103.355C109.864 103.634 109.894 103.984 109.744 104.264C109.575 104.604 109.186 104.774 108.828 104.874C107.851 105.154 106.785 105.144 105.809 104.854C105.52 104.764 105.211 104.634 105.072 104.354C104.614 103.435 105.779 102.085 106.666 101.955C107.632 101.825 109.266 102.475 109.714 103.355Z" fill="#240A19"/>
<path d="M78.2309 112.589C76.1288 112.719 73.9072 113.499 72.7616 115.278C71.3768 117.437 72.114 120.515 73.9869 122.274C75.8598 124.023 78.5795 124.613 81.1398 124.443C82.2955 124.363 83.5607 124.073 84.1983 123.103C84.4473 122.724 84.5769 122.284 84.6665 121.834C85.1646 119.475 84.7362 116.877 83.7301 114.698C82.8235 112.739 80.1436 112.469 78.2309 112.589Z" fill="#FF836D"/>
<path d="M77.4141 117.247C78.7191 117.606 79.8349 118.596 80.343 119.845" stroke="#0E1219" stroke-width="0.4918" stroke-miterlimit="10" stroke-linecap="round" stroke-linejoin="round"/>
<path d="M75.9812 112.929C78.3921 112.819 80.8229 113.249 83.0445 114.188C84.2898 111.79 83.8913 108.702 82.4169 106.443C84.3496 105.503 85.2561 103.455 85.8041 101.366C86.0033 100.596 86.1727 99.8066 86.1727 99.007C86.1826 96.7383 84.7979 94.5096 82.7456 93.5302C80.7033 92.5507 78.1032 92.8605 76.3498 94.2997C74.4271 95.8788 73.66 98.4774 73.4109 100.956C73.0025 105.044 74.2278 109.221 75.9812 112.929Z" fill="#240A19"/>
<path d="M79.8164 112.959C80.8724 114.138 81.7092 115.508 82.2771 116.977C83.0043 115.658 83.4028 114.178 83.6818 112.689C83.8013 112.03 83.881 111.33 83.7117 110.68C83.5423 110.031 83.0741 109.411 82.4265 109.241C81.6893 109.041 80.8923 109.441 80.4142 110.041C79.936 110.63 79.9957 112.22 79.8164 112.959Z" fill="#240A19"/>
<path d="M81.4297 92.9305C81.7883 93.3503 82.3163 93.5802 82.8344 93.77C84.5379 94.3997 86.3411 94.8494 88.1642 94.7895C89.9774 94.7295 91.8204 94.1298 93.1554 92.8905C96.3234 94.6995 100.069 95.529 103.695 95.1992C105.14 95.0693 106.784 94.5996 107.362 93.2603C107.91 92.011 107.242 90.5419 106.316 89.5424C105.19 88.3431 103.686 87.5536 102.141 86.9739C98.5649 85.6546 94.6098 85.4148 90.9039 86.2943C87.2078 87.1838 84.0299 90.1421 81.4297 92.9305Z" fill="#240A19"/>
<path d="M83.9503 137.335C83.9503 137.335 95.7058 141.393 105.718 135.366C105.718 135.366 119.057 138.715 130.733 146.24L133.065 222.037C133.065 222.037 83.3625 230.902 65.3506 221.038L62.4316 151.767L83.9503 137.335Z" fill="#FEE9E8"/>
<path d="M63.0207 217.85C63.0207 217.85 52.3511 320.671 52.0123 335.013C51.6836 349.355 49.0137 410.91 49.0137 410.91L77.0377 411.61L96.3845 280.094L113.729 408.811L141.753 409.161L133.076 222.227L63.0207 217.85Z" fill="#0E3F8B"/>
<path d="M59.6621 222.827C85.5442 227.084 111.905 228.344 138.076 226.585" stroke="#0E1219" stroke-width="0.3848" stroke-miterlimit="10" stroke-linecap="round" stroke-linejoin="round"/>
<path d="M107.323 220.528C107.253 222.817 107.183 225.105 107.113 227.384C106.994 231.122 107.283 234.69 107.362 238.418C107.372 239.028 107.392 239.657 107.223 240.247C107.024 240.966 106.565 241.606 105.948 242.026C105.579 242.276 105.141 242.446 104.702 242.416C104.015 242.356 103.447 241.796 103.178 241.156C102.909 240.517 102.889 239.807 102.859 239.118C102.79 237.109 102.73 235.09 102.66 233.081" stroke="#0E1219" stroke-width="0.3848" stroke-miterlimit="10" stroke-linecap="round" stroke-linejoin="round"/>
<path d="M104.842 223.667C104.842 224.706 104.005 225.546 102.969 225.546C101.933 225.546 101.096 224.706 101.096 223.667C101.096 222.628 101.933 221.788 102.969 221.788C103.995 221.788 104.842 222.628 104.842 223.667Z" stroke="#0E1219" stroke-width="0.3848" stroke-miterlimit="10" stroke-linecap="round" stroke-linejoin="round"/>
<path d="M106.715 256.008L96.3742 280.094L77.0273 411.61" stroke="#0E1219" stroke-width="0.5246" stroke-miterlimit="10" stroke-linecap="round" stroke-linejoin="round"/>
<path d="M99.7109 273.238L118.47 408.771" stroke="#0E1219" stroke-width="0.3848" stroke-miterlimit="10" stroke-linecap="round" stroke-linejoin="round"/>
<path d="M85.3647 237.758C84.3685 258.676 82.6948 270.899 82.6948 270.899C82.6948 270.899 65.8485 276.746 48.4941 265.043C48.4941 265.043 62.8399 210.324 61.5049 197.771C60.17 185.228 60.17 153.606 60.17 153.606C60.17 153.606 65.9182 148.079 72.9018 143.462C73.0214 143.372 73.1409 143.302 73.2505 143.222C76.1097 141.343 79.1681 139.644 82.0971 138.545C82.107 138.545 86.3609 216.85 85.3647 237.758Z" fill="#324D63"/>
<path d="M95.668 202.418L67.395 203.798C67.395 203.798 68.2717 205.177 66.6478 205.926C65.0239 206.676 58.6381 206.056 60.0229 201.909C60.0229 201.909 59.0266 200.03 59.8933 198.391C59.8933 198.391 59.2657 196.262 60.6405 194.753C60.6405 194.753 60.262 192.364 61.7663 191.614C63.2706 190.865 94.6618 189.226 94.6618 189.226L95.668 202.418Z" fill="#FF836D"/>
<path d="M141.403 270.05C125.892 277.416 113.558 269.88 113.558 269.88L110.46 184.219L110.44 183.469L108.717 135.856L118.938 140.444L119.635 140.753L132.108 146.35L141.403 270.05Z" fill="#324D63"/>
<path d="M77.9027 147.18C75.5616 149.628 72.9614 152.597 71.5169 155.985C72.533 157.204 73.5492 158.423 74.5654 159.653C75.6114 160.912 76.6574 162.181 77.7135 163.44C77.7832 163.52 77.7732 163.64 77.6935 163.71C77.6537 163.74 77.6138 163.76 77.564 163.76C77.5142 163.76 77.4544 163.74 77.4146 163.69C76.3685 162.431 75.3225 161.162 74.2665 159.902C73.2304 158.643 72.1843 157.394 71.1483 156.145C71.0984 156.095 71.0885 156.015 71.1184 155.945C72.5529 152.507 75.1332 149.518 77.4943 147.04C76.1095 145.661 74.5753 144.451 72.9016 143.462C73.0212 143.372 73.1407 143.302 73.2503 143.222C74.9439 144.251 76.508 145.481 77.8928 146.9C77.9824 146.98 77.9824 147.1 77.9027 147.18Z" fill="#0E1219"/>
<path d="M88.3242 206.226C88.3242 206.226 120.642 213.082 136.572 207.565" stroke="#0E1219" stroke-width="0.3848" stroke-miterlimit="10" stroke-linecap="round" stroke-linejoin="round"/>
<path d="M60.1811 153.606C60.1811 153.606 41.0036 172.176 51.8426 194.093C61.4463 213.512 82.0284 197.271 85.5352 193.593C89.0419 189.915 97.7091 169.997 97.7091 169.997L82.8653 158.283L71.3588 166.988L60.1811 153.606Z" fill="#324D63"/>
<path d="M83.0742 158.794C83.0742 158.794 93.3354 146.87 93.704 145.871C94.0826 144.871 95.4574 130.31 96.7027 129.31C97.9579 128.311 106.456 124.793 107.462 126.802C107.462 126.802 110.341 126.552 110.59 128.681C110.59 128.681 113.718 128.681 113.589 130.56C113.589 130.56 115.093 132.948 115.093 134.577C115.093 136.206 112.712 138.965 111.337 138.845C111.337 138.845 111.337 144.362 109.215 147.38C107.093 150.388 100.837 155.415 100.837 155.415L93.704 166.839L83.0742 158.794Z" fill="#FF836D"/>
<path d="M93.7051 146.18C93.7051 146.18 95.3987 130.869 96.7037 129.3C98.0188 127.731 106.646 123.523 107.832 126.601C107.832 126.601 110.332 126.411 110.581 128.67C110.581 128.67 113.331 128.54 113.58 130.549C113.58 130.549 115.393 133.308 115.014 135.067C114.636 136.826 113.142 138.834 111.328 138.834" stroke="#0E1219" stroke-width="0.3848" stroke-miterlimit="10" stroke-linecap="round" stroke-linejoin="round"/>
<path d="M107.98 126.562C105.997 126.912 102.809 127.881 101.086 128.931" stroke="#0E1219" stroke-width="0.3848" stroke-miterlimit="10" stroke-linecap="round" stroke-linejoin="round"/>
<path d="M110.789 128.73C108.01 129.13 106.197 129.37 103.646 130.549" stroke="#0E1219" stroke-width="0.3848" stroke-miterlimit="10" stroke-linecap="round" stroke-linejoin="round"/>
<path d="M113.679 130.679C111.069 131.049 108.429 131.609 106.008 132.638" stroke="#0E1219" stroke-width="0.3848" stroke-miterlimit="10" stroke-linecap="round" stroke-linejoin="round"/>
<path d="M107.941 148.849C109.037 147.809 109.884 146.5 110.372 145.071C111.179 142.722 111.02 140.144 111.588 137.725C111.767 136.986 112.036 136.206 112.634 135.736" stroke="#0E1219" stroke-width="0.3848" stroke-miterlimit="10" stroke-linecap="round" stroke-linejoin="round"/>
<path d="M64.3047 175.734L82.9442 158.663L97.7083 169.997" stroke="#0E1219" stroke-width="0.3848" stroke-miterlimit="10" stroke-linecap="round" stroke-linejoin="round"/>
<path d="M76.2598 164.75C83.2434 167.908 89.8384 171.996 94.0624 178.402" stroke="#0E1219" stroke-width="0.3848" stroke-miterlimit="10" stroke-linecap="round" stroke-linejoin="round"/>
<path d="M50.5664 191.525C54.4816 191.085 58.5562 191.754 61.9732 193.713C65.3903 195.672 68.0901 198.96 69.0565 202.788" stroke="#0E1219" stroke-width="0.3848" stroke-miterlimit="10" stroke-linecap="round" stroke-linejoin="round"/>
<path d="M132.029 146.37C132.029 146.37 143.535 152.227 147.201 170.796C150.867 189.366 146.863 203.388 134.529 208.615C123.86 213.132 88.334 206.226 88.334 206.226L89.1708 188.196L126.36 181.001L132.029 146.37Z" fill="#324D63"/>
<path d="M89.1602 188.196L125.981 181.38" stroke="#0E1219" stroke-width="0.3848" stroke-miterlimit="10" stroke-linecap="round" stroke-linejoin="round"/>
<path d="M123.969 181.55C124.038 176.023 124.327 170.496 124.825 164.99" stroke="#0E1219" stroke-width="0.3848" stroke-miterlimit="10" stroke-linecap="round" stroke-linejoin="round"/>
<path d="M131.74 208.575C133.912 201.559 140.019 195.912 147.172 194.323" stroke="#0E1219" stroke-width="0.3848" stroke-miterlimit="10" stroke-linecap="round" stroke-linejoin="round"/>
<path d="M123.232 156.025L110.55 184.139C110.53 184.179 110.5 184.219 110.45 184.229C110.43 184.239 110.4 184.249 110.371 184.249C110.351 184.249 110.321 184.249 110.291 184.229C110.191 184.189 110.151 184.069 110.201 183.969L110.43 183.479L122.823 155.985L115.063 147.37C115.033 147.33 115.013 147.28 115.013 147.22C115.023 147.17 115.053 147.12 115.093 147.08L120.622 142.762L118.928 140.444L119.625 140.753L121.04 142.682C121.11 142.772 121.09 142.892 121.01 142.952L115.501 147.26L123.192 155.815C123.252 155.875 123.262 155.955 123.232 156.025Z" fill="#0E1219"/>
<path d="M39.9183 128.83L39.6493 129.05C39.3105 129.21 38.9718 129.18 38.6232 128.93C37.5173 128.031 36.6905 127.041 36.1824 125.952C34.9072 123.203 35.9632 120.705 37.0591 118.096C37.5671 116.807 37.9059 115.828 38.0155 115.178C38.135 114.528 38.0752 113.919 37.8461 113.429C37.1687 111.96 35.5847 111.83 34.2198 112.469C32.7055 113.179 31.5499 114.678 30.7928 116.127C30.6533 116.327 30.5437 116.477 30.3445 116.567C30.1153 116.677 29.8763 116.647 29.6172 116.497L27.3857 115.158C27.2163 115.098 27.0967 114.928 27.0071 114.738C26.8875 114.478 26.8975 114.198 26.9971 113.919C28.2624 111.27 30.0855 109.421 32.4366 108.322C36.3019 106.523 40.3267 107.432 42.1398 111.34C43.2855 113.819 42.8472 115.947 41.9207 118.436L41.5322 119.485C41.0241 120.685 40.7152 121.604 40.5558 122.274C40.4064 122.943 40.4562 123.553 40.7053 124.083C40.9344 124.573 41.303 125.082 41.8709 125.602C41.9805 125.732 42.0701 125.832 42.1 125.902C42.1498 126.012 42.1797 126.182 42.1598 126.332C42.1 126.501 42.0402 126.661 41.9406 126.751L39.9183 128.83ZM40.1275 135.766C39.3305 134.037 40.0876 131.988 41.831 131.179C43.6143 130.349 45.6068 131.069 46.4237 132.828C47.2406 134.597 46.5033 136.586 44.7201 137.415C42.9767 138.235 40.9245 137.495 40.1275 135.766Z" fill="#0E3F8B"/>
<path d="M157.913 235.959C158.64 234.2 160.652 233.381 162.435 234.12C164.249 234.88 165.066 236.839 164.328 238.638C163.581 240.437 161.619 241.236 159.805 240.477C158.022 239.727 157.175 237.718 157.913 235.959ZM162.864 231.112L162.525 231.062C162.176 230.922 161.967 230.652 161.917 230.222C161.828 228.793 161.997 227.514 162.455 226.405C163.611 223.606 166.161 222.697 168.821 221.747C170.116 221.258 171.053 220.838 171.611 220.488C172.169 220.138 172.577 219.678 172.786 219.179C173.404 217.69 172.428 216.43 171.043 215.851C169.499 215.211 167.616 215.371 166.042 215.791C165.803 215.821 165.613 215.841 165.424 215.761C165.195 215.661 165.046 215.471 164.986 215.171L164.458 212.622C164.388 212.463 164.428 212.253 164.508 212.063C164.617 211.793 164.826 211.613 165.105 211.503C167.905 210.654 170.495 210.744 172.886 211.743C176.831 213.382 178.873 216.98 177.23 220.958C176.183 223.486 174.321 224.596 171.87 225.585L170.834 226.005C169.608 226.435 168.722 226.834 168.134 227.164C167.536 227.504 167.128 227.954 166.909 228.493C166.699 228.993 166.58 229.613 166.58 230.372C166.56 230.542 166.55 230.672 166.51 230.752C166.46 230.862 166.361 231.002 166.231 231.082C166.072 231.152 165.902 231.212 165.773 231.202L162.864 231.112Z" fill="#0E3F8B"/>
</svg>
