<svg width="192" height="451" viewBox="0 0 192 451" fill="none" xmlns="http://www.w3.org/2000/svg">
<path opacity="0.43" d="M56.3692 100.033C29.4311 118.087 8.9884 148.052 2.33357 181.892C-4.32126 215.733 3.37962 252.991 23.8721 279.318C47.0445 309.083 85.9374 322.941 120.636 313.798C130.708 311.141 140.471 306.655 148.74 299.801C160.216 290.279 168.326 276.611 174.323 262.273C188.091 229.351 191.618 191.394 184.206 156.095C179.872 135.472 171.583 115.31 157.566 100.762C130.16 72.337 86.2362 80.0204 56.3692 100.033Z" fill="#889DBE"/>
<path d="M184.226 441.758C184.226 442.667 182.96 443.547 180.609 444.376C172.899 447.093 153.442 449.302 128.337 450.341C123.027 450.55 117.468 450.72 111.7 450.84C106.35 450.95 100.851 451 95.2124 451C51.9759 451 15.9422 447.793 7.89262 443.537C6.7868 442.957 6.20898 442.368 6.20898 441.748C6.20898 441.019 7.00597 440.319 8.51028 439.65C13.5014 437.412 26.2831 435.493 43.7072 434.205C45.2015 434.085 46.7457 433.985 48.3197 433.885C54.5063 433.475 61.191 433.156 68.2643 432.936C76.7522 432.646 85.8079 432.496 95.1924 432.496C115.286 432.496 133.826 433.185 148.71 434.354C163.683 435.533 174.971 437.192 180.48 439.1C182.931 439.95 184.226 440.849 184.226 441.758Z" fill="#889DBE"/>
<path d="M76.4734 58.9885C76.4734 58.9885 24.9383 68.7601 21.1028 57.8995C17.2673 47.0389 14.8863 11.9192 21.4714 6.67372C28.0565 1.42825 108.283 -4.54659 114.131 5.22497C119.979 14.9965 120.347 51.0154 114.858 53.9129C109.379 56.8104 85.4395 58.9785 85.4395 58.9785L86.9039 69.8392L76.4734 58.9885Z" fill="#0E3F8B"/>
<path d="M75.2617 15.8164H82.3711L81.7656 34.7617H75.8672L75.2617 15.8164ZM78.8164 44.6445C77.7878 44.6445 76.9089 44.306 76.1797 43.6289C75.4635 42.9388 75.1055 42.1055 75.1055 41.1289C75.1055 40.1523 75.4635 39.3255 76.1797 38.6484C76.9089 37.9714 77.7878 37.6328 78.8164 37.6328C79.832 37.6328 80.6979 37.9714 81.4141 38.6484C82.1432 39.3255 82.5078 40.1523 82.5078 41.1289C82.5078 42.1055 82.1432 42.9388 81.4141 43.6289C80.6979 44.306 79.832 44.6445 78.8164 44.6445Z" fill="white"/>
<path d="M62.7781 36.8876L62.4394 36.9675C62.0609 36.9675 61.772 36.7977 61.5627 36.428C60.9351 35.1391 60.5964 33.9002 60.5964 32.7012C60.5964 29.6738 62.6088 27.8554 64.7009 25.9471C65.7071 24.9979 66.4144 24.2485 66.793 23.709C67.1715 23.1695 67.3807 22.59 67.3807 22.0504C67.3807 20.4318 65.996 19.6425 64.4917 19.6425C62.818 19.6425 61.1443 20.5118 59.8492 21.5109C59.64 21.6308 59.4707 21.7207 59.2615 21.7207C59.0124 21.7207 58.8032 21.6008 58.6338 21.351L57.1694 19.1929C57.0398 19.073 57 18.8632 57 18.6534C57 18.3636 57.1295 18.1138 57.3387 17.904C59.6002 16.0356 62.021 15.1264 64.6212 15.1264C68.885 15.1264 72.1527 17.6542 72.1527 21.9605C72.1527 24.6981 70.8576 26.4366 68.9747 28.305L68.1777 29.0943C67.2114 29.9636 66.5439 30.673 66.1255 31.2125C65.7071 31.752 65.4979 32.3315 65.4979 32.911C65.4979 33.4506 65.6274 34.07 65.9163 34.7794C65.9561 34.9493 65.996 35.0692 65.996 35.1491C65.996 35.269 65.9561 35.4389 65.8665 35.5687C65.737 35.6886 65.6174 35.8185 65.4879 35.8585L62.7781 36.8876ZM60.0584 43.2621C60.0584 41.3538 61.6026 39.8251 63.5353 39.8251C65.4979 39.8251 67.0121 41.3138 67.0121 43.2621C67.0121 45.2104 65.5078 46.6991 63.5353 46.6991C61.6026 46.6991 60.0584 45.1705 60.0584 43.2621Z" fill="white"/>
<path d="M96.7973 431.757C97.2057 434.035 64.1607 449.351 62.7162 447.283C61.2816 445.215 76.5538 426.781 76.5538 426.781L74.5016 421.426L72.4294 416.01L89.3654 409.176C89.3654 409.176 90.9195 413.652 92.6031 418.628C94.5059 424.263 96.5881 430.548 96.7973 431.757Z" fill="#FF9C87"/>
<path d="M96.7973 431.757C97.2057 434.035 64.1607 449.351 62.7162 447.283C61.2816 445.215 76.5538 426.781 76.5538 426.781L74.5016 421.426C74.7905 420.886 75.2089 420.466 75.7867 420.267C76.524 420.007 77.3508 420.247 77.9984 420.666C78.6559 421.096 79.154 421.715 79.6322 422.325C80.1204 422.924 80.5886 423.504 81.0767 424.103C83.3581 421.386 86.556 418.638 90.0926 418.358C90.9494 418.288 91.8062 418.378 92.6031 418.628C94.5059 424.263 96.5881 430.548 96.7973 431.757Z" fill="#0E3F8B"/>
<path d="M137.305 443.477C136.847 445.745 100.484 447.593 99.9062 445.135C99.3284 442.677 120.359 431.287 120.359 431.287L120.449 425.552L120.538 419.757L138.799 419.747C138.799 419.747 138.58 424.483 138.291 429.728C137.962 435.673 137.554 442.268 137.305 443.477Z" fill="#FF9C87"/>
<path d="M137.305 443.477C136.847 445.745 100.484 447.593 99.9062 445.135C99.3284 442.677 120.359 431.287 120.359 431.287L120.449 425.552C120.917 425.162 121.455 424.923 122.072 424.963C122.849 425.002 123.537 425.522 123.975 426.161C124.423 426.801 124.653 427.56 124.882 428.31C125.111 429.049 125.33 429.758 125.559 430.498C128.687 428.829 132.682 427.48 136.059 428.539C136.886 428.789 137.634 429.199 138.291 429.728C137.962 435.673 137.554 442.268 137.305 443.477Z" fill="#0E3F8B"/>
<path d="M74.2426 218.071C74.2426 218.071 31.9127 327.197 36.7943 347.879C41.6758 368.561 70.985 418.358 70.985 418.358L96.4885 409.646L94.3167 404.75L71.7919 340.525L103.811 292.087L112.219 349.508L117.101 421.076C117.101 421.076 134.196 425.702 143.152 422.435C143.152 422.435 152.377 295.344 148.85 276.84C145.324 258.336 133.11 219.15 133.11 219.15L74.2426 218.071Z" fill="#433D3B"/>
<path d="M91.9648 258.346L103.81 292.087C103.81 292.087 111.501 338.167 113.673 369.371C115.845 400.574 117.11 421.076 117.11 421.076" stroke="#0E1219" stroke-width="0.5334" stroke-miterlimit="10" stroke-linecap="round" stroke-linejoin="round"/>
<path d="M128.117 220.949C137.492 253.501 140.301 287.611 140.72 321.492C141.138 355.373 139.225 389.243 139.395 423.124" stroke="#0E1219" stroke-width="0.5334" stroke-miterlimit="10" stroke-linecap="round" stroke-linejoin="round"/>
<path d="M100.972 283.525C88.0806 299.251 76.9427 316.426 67.8372 334.621C67.3191 335.66 66.7911 336.749 66.7413 337.908C66.7015 338.957 67.0601 339.976 67.4088 340.965C75.6177 364.235 83.8267 387.495 92.0357 410.765" stroke="#0E1219" stroke-width="0.5334" stroke-miterlimit="10" stroke-linecap="round" stroke-linejoin="round"/>
<path d="M37.8809 81.0495C37.8809 81.0495 39.9829 77.3327 39.9132 73.5659C39.7737 65.5429 37.8809 66.2223 39.9132 63.085C41.9455 59.9577 53.0734 48.5276 54.9762 49.207C56.879 49.8864 50.2242 57.5098 50.2242 57.5098C50.2242 57.5098 62.5675 54.922 60.3957 59.6879C60.3957 59.6879 63.5139 60.777 60.9337 63.085C60.9337 63.085 62.2985 64.6536 60.2562 65.3031C56.0023 66.6619 53.2029 68.1106 53.2029 68.1106C53.2029 68.1106 56.5901 76.1337 51.4396 82.808L37.8809 81.0495Z" fill="#FF9C87"/>
<path d="M45.0039 61.5963C45.0039 61.5963 47.9926 58.1992 50.2242 57.5098C52.0273 56.9603 57.0384 56.2809 59.4891 57.2101C60.3957 57.5498 60.8838 58.5989 60.4953 59.4881C60.4654 59.5581 60.4355 59.618 60.3957 59.678" stroke="#0E1219" stroke-width="0.3359" stroke-miterlimit="10" stroke-linecap="round" stroke-linejoin="round"/>
<path d="M47.4141 63.5346C47.4141 63.5346 51.399 60.5472 53.8597 60.0676C56.4698 59.558 61.7598 59.0784 61.9989 61.2566" stroke="#0E1219" stroke-width="0.3359" stroke-miterlimit="10" stroke-linecap="round" stroke-linejoin="round"/>
<path d="M48.6992 66.2523C48.6992 66.2523 52.3654 63.4947 55.6529 63.2549C58.9405 63.0151 60.5345 62.7753 61.1521 63.4248" stroke="#0E1219" stroke-width="0.3359" stroke-miterlimit="10" stroke-linecap="round" stroke-linejoin="round"/>
<path d="M121.724 94.4579C124.264 95.7867 126.586 97.5552 128.478 99.7433C131.886 103.69 133.081 108.865 133.051 113.981C133.031 116.928 132.344 119.836 132.264 122.783C132.214 124.622 132.503 126.54 133.539 128.049C135.024 130.197 137.514 130.886 139.706 132.075C142.077 133.364 144.348 134.933 145.992 137.111C149.599 141.887 149.947 149.071 147.875 154.546C146.829 157.314 145.116 159.881 142.715 161.62C139.975 163.598 136.538 164.378 133.161 164.597C122.73 165.267 112.24 163.718 101.959 162.129C94.487 160.97 86.9455 159.751 79.8324 157.074C73.7355 154.786 68.4156 151.399 66.7419 144.635C64.7993 136.771 69.4218 127.929 77.1326 125.341C79.6033 124.512 82.5621 124.242 84.2955 122.054C86.4673 119.306 85.4313 115.41 85.0826 112.253C84.435 106.507 85.7799 100.233 90.3925 96.4062C96.9875 90.9409 104.36 90.5812 112.439 91.5904C115.637 91.98 118.835 92.9392 121.724 94.4579Z" fill="#240A19"/>
<path d="M122.172 127.05L119.961 144.595L98.8008 144.994L99.528 139.639L100.156 134.933L120.26 127.729L122.172 127.05Z" fill="#FF9C87"/>
<path d="M120.259 127.729C120.428 132.025 118.177 136.302 114.66 138.77C111.044 141.317 106.242 141.987 101.978 140.798C101.091 140.548 100.215 140.208 99.5273 139.639L100.155 134.943L120.259 127.729Z" fill="#FF836D"/>
<path d="M123.627 117.418C125.35 116.439 127.363 116.409 128.917 118.367C129.146 118.647 129.325 118.967 129.465 119.306C130.302 121.315 129.843 124.012 128.269 125.551C126.795 126.99 124.155 127.719 122.182 127.06C120.12 126.37 119.702 124.172 120.08 122.254C120.439 120.376 121.884 118.407 123.627 117.418Z" fill="#FF9C87"/>
<path d="M126.415 120.805C125.239 121.175 124.263 122.154 123.904 123.333" stroke="#0E1219" stroke-width="0.5" stroke-miterlimit="10" stroke-linecap="round" stroke-linejoin="round"/>
<path d="M89.8334 107.836C89.8334 107.836 89.8434 107.836 89.8733 107.846C91.3577 99.4936 98.929 93.149 108.025 93.149C108.343 93.149 108.652 93.159 108.961 93.179C118.704 93.6486 126.455 101.402 126.455 110.884C126.455 112.842 126.126 114.72 125.518 116.479C125.01 117.968 124.293 119.366 123.406 120.655C122.331 132.055 117.15 138.85 101.29 137.161C85.201 135.443 89.8334 107.836 89.8334 107.836Z" fill="#FF9C87"/>
<path d="M105.535 115.571C105.495 116.57 106.262 117.409 107.248 117.449C108.234 117.489 109.061 116.71 109.101 115.711C109.141 114.711 108.374 113.872 107.388 113.832C106.401 113.792 105.565 114.572 105.535 115.571Z" fill="#240A19"/>
<path d="M92.4235 114.271C92.3836 115.19 93.091 115.959 93.9975 115.999C94.9041 116.039 95.6712 115.32 95.7011 114.401C95.7409 113.481 95.0336 112.712 94.127 112.672C93.2205 112.632 92.4534 113.352 92.4235 114.271Z" fill="#240A19"/>
<path d="M98.1614 113.981C97.4441 115.839 96.936 117.768 96.6371 119.736C96.4678 120.865 97.0854 121.974 98.1514 122.364C98.1614 122.364 98.1614 122.364 98.1713 122.374" stroke="#0E1219" stroke-width="0.5" stroke-miterlimit="10" stroke-linecap="round" stroke-linejoin="round"/>
<path d="M100.731 122.234C100.621 122.084 100.482 121.924 100.323 121.824C100.193 121.744 100.034 121.704 99.8842 121.754C99.6252 121.844 99.5654 122.164 99.5156 122.404" stroke="#0E1219" stroke-width="0.5" stroke-miterlimit="10" stroke-linecap="round" stroke-linejoin="round"/>
<path d="M105.693 110.464C105.454 110.644 105.235 110.874 105.235 111.133C105.225 111.403 105.454 111.653 105.753 111.793C106.042 111.933 106.39 111.983 106.729 112.013C107.735 112.103 108.851 111.983 109.528 111.383C109.638 111.293 109.728 111.183 109.768 111.063C109.847 110.814 109.688 110.544 109.439 110.374C108.303 109.595 106.759 109.675 105.693 110.464Z" fill="#240A19"/>
<path d="M92.7123 108.436C92.4832 108.626 92.264 108.865 92.264 109.145C92.254 109.435 92.4832 109.695 92.7621 109.835C93.041 109.984 93.3798 110.034 93.7085 110.064C94.6848 110.154 95.7707 110.034 96.4282 109.405C96.5279 109.305 96.6175 109.195 96.6574 109.065C96.7371 108.805 96.5777 108.516 96.3386 108.336C95.2427 107.517 93.7384 107.607 92.7123 108.436Z" fill="#240A19"/>
<path d="M100.266 125.591C101.192 124.172 103.075 123.463 104.699 123.912" stroke="#0E1219" stroke-width="0.5" stroke-miterlimit="10" stroke-linecap="round" stroke-linejoin="round"/>
<path d="M107.03 92.3307C106.353 94.9984 106.592 97.856 107.429 100.474C108.265 103.101 109.66 105.509 111.284 107.737C113.775 111.164 116.943 114.282 120.908 115.76C120.868 117.009 121.087 118.248 121.177 119.497C121.187 119.567 121.187 119.637 121.236 119.697C121.336 119.817 121.525 119.747 121.665 119.677C123.498 118.668 125.321 117.659 127.154 116.65C128.081 114.771 128.001 112.693 128.071 110.595C128.12 109.306 128.16 108.007 128.001 106.718C127.533 103.141 125.381 99.9142 122.571 97.6561C119.762 95.3881 116.345 94.0093 112.868 93.0801C110.975 92.5905 108.983 92.2008 107.03 92.3307Z" fill="#240A19"/>
<path d="M97.5744 139.419L121.454 138.88C121.454 138.88 121.454 143.775 122.809 145.953C124.164 148.132 138.549 158.473 141.259 166.905C143.969 175.338 133.12 220.239 133.12 220.239C133.12 220.239 92.4139 227.863 74.2426 218.061C74.2426 218.061 65.5555 197.109 68.5442 173.979C68.5442 173.979 19.6989 151.119 15.0864 135.333C10.4738 119.546 37.0632 78.182 37.0632 78.182L52.8037 83.3575C52.8037 83.3575 38.6971 118.467 39.7829 121.455C40.8688 124.452 79.9411 144.045 86.1775 145.404C92.4238 146.773 95.4524 145.894 97.5744 139.419Z" fill="#FEE9E8"/>
<path d="M105.174 176.887L121.094 171.991L126.294 186.369L139.863 165.277C139.863 165.277 144.744 169.083 142.981 192.084C141.217 215.084 138.099 225.695 125.617 227.193C105.742 229.571 105.174 176.887 105.174 176.887Z" fill="#FEE9E8"/>
<path d="M72.4287 163.638C72.4287 163.638 65.0167 179.784 68.2644 195.93C71.5221 212.076 74.2319 218.061 74.2319 218.061" stroke="#0E1219" stroke-width="0.5334" stroke-miterlimit="10" stroke-linecap="round" stroke-linejoin="round"/>
<path d="M108.124 175.348C108.124 175.348 106.002 172.301 105.275 169.343C104.538 166.386 105.275 163.159 105.275 163.159C105.275 163.159 103.522 156.045 108.493 153.277C108.493 153.277 108.214 149.031 109.688 148.201C111.163 147.372 111.9 152.268 111.9 152.268C111.9 152.268 111.531 140.638 113.185 140.078C114.839 139.529 115.207 152.268 115.945 153.837C116.682 155.405 119.999 160.581 119.81 162.239C119.631 163.898 117.967 172.76 117.967 172.76L108.124 175.348Z" fill="#FF9C87"/>
<path d="M112.388 151.758C112.388 151.758 109.349 152.248 107.695 153.767C106.36 154.996 105.524 156.684 105.165 158.453C104.896 159.742 104.438 162.729 105.803 163.578C106.49 163.998 107.167 163.628 107.426 162.909" stroke="#0E1219" stroke-width="0.3419" stroke-miterlimit="10" stroke-linecap="round" stroke-linejoin="round"/>
<path d="M113.075 153.277C113.075 153.277 108.791 154.246 107.895 157.294C106.998 160.341 106.928 163.248 108.383 163.458C109.837 163.668 110.106 162.07 110.106 162.07" stroke="#0E1219" stroke-width="0.3419" stroke-miterlimit="10" stroke-linecap="round" stroke-linejoin="round"/>
<path d="M114.111 154.876C114.111 154.876 112.577 154.326 111.212 157.573C109.797 160.93 109.767 162.729 111.043 163.219C111.939 163.568 112.826 161.13 113.374 159.881" stroke="#0E1219" stroke-width="0.3419" stroke-miterlimit="10" stroke-linecap="round" stroke-linejoin="round"/>
<path d="M113.144 160.311C112.735 161.34 112.337 162.369 112.098 163.438C111.859 164.517 111.789 165.646 112.068 166.716" stroke="#0E1219" stroke-width="0.3419" stroke-miterlimit="10" stroke-linecap="round" stroke-linejoin="round"/>
<path d="M132.214 202.555L121.266 171.801L105.525 176.337C105.525 176.337 108.016 213.845 116.285 223.097" stroke="#0E1219" stroke-width="0.5334" stroke-miterlimit="10" stroke-linecap="round" stroke-linejoin="round"/>
<path d="M41.3272 195.341L41.0781 195.581C40.7493 195.77 40.4206 195.77 40.052 195.551C38.8665 194.751 37.9599 193.842 37.3622 192.803C35.8578 190.185 36.6847 187.597 37.5415 184.9C37.94 183.571 38.1791 182.572 38.2388 181.912C38.2986 181.253 38.189 180.653 37.92 180.184C37.1131 178.785 35.5291 178.795 34.224 179.554C32.7795 180.394 31.7633 181.982 31.1357 183.501C31.0162 183.711 30.9165 183.871 30.7273 183.971C30.5081 184.1 30.269 184.091 30 183.961L27.6589 182.832C27.4895 182.782 27.35 182.632 27.2404 182.452C27.091 182.202 27.081 181.922 27.1607 181.643C28.1869 178.895 29.8306 176.887 32.0821 175.588C35.7781 173.45 39.8627 173.999 42.0146 177.736C43.3794 180.104 43.1204 182.262 42.423 184.82L42.1241 185.899C41.7257 187.138 41.4965 188.077 41.3969 188.756C41.3072 189.436 41.4069 190.035 41.6958 190.545C41.9648 191.015 42.3832 191.484 42.9909 191.954C43.1104 192.074 43.21 192.164 43.2499 192.233C43.3097 192.343 43.3595 192.503 43.3495 192.653C43.2997 192.823 43.2598 192.993 43.1702 193.093L41.3272 195.341ZM42.154 202.225C41.2076 200.576 41.7755 198.468 43.4491 197.509C45.1527 196.52 47.2049 197.059 48.1713 198.748C49.1376 200.436 48.5797 202.485 46.8762 203.464C45.2025 204.433 43.1005 203.883 42.154 202.225Z" fill="#0E3F8B"/>
<path d="M170.521 118.44L180.811 121.239L172.474 148.422L163.937 146.099L170.521 118.44ZM164.313 161.565C162.825 161.16 161.686 160.324 160.897 159.056C160.132 157.775 159.942 156.428 160.327 155.015C160.711 153.601 161.555 152.546 162.858 151.848C164.18 151.155 165.586 151.011 167.075 151.416C168.545 151.816 169.665 152.647 170.434 153.909C171.223 155.176 171.425 156.516 171.041 157.93C170.656 159.343 169.8 160.406 168.473 161.118C167.17 161.816 165.783 161.965 164.313 161.565Z" fill="#0E3F8B"/>
</svg>
