<svg width="32" height="32" viewBox="0 0 32 32" fill="none" xmlns="http://www.w3.org/2000/svg">
<path fill-rule="evenodd" clip-rule="evenodd" d="M16.9292 4.39518C19.7617 4.53439 22.401 5.70242 24.4169 7.71966C26.5672 9.87129 27.7508 12.7314 27.7496 15.773C27.747 22.0495 22.6374 27.1564 16.3604 27.1564C14 27.1564 12.1242 26.4312 10.9131 25.7709L4.87543 27.3538L6.49124 21.4549C5.49455 19.7286 4.9701 17.7703 4.97093 15.7639C4.97345 9.48751 10.0827 4.3811 16.3603 4.3811L16.9292 4.39518ZM11.1928 23.71L11.5385 23.9151C12.9919 24.7772 14.6579 25.2333 16.3565 25.2339H16.3604C21.578 25.2339 25.8245 20.9894 25.8266 15.7723C25.8276 13.2442 24.8439 10.867 23.0566 9.0786C21.2693 7.2901 18.8926 6.30459 16.3642 6.30377C11.1426 6.30377 6.89597 10.5479 6.89389 15.7646C6.89318 17.5524 7.39363 19.2935 8.34122 20.7999L8.56629 21.1579L7.60999 24.6494L11.1928 23.71ZM22.0982 18.4799C22.0271 18.3612 21.8374 18.2901 21.5528 18.1477C21.2682 18.0053 19.8691 17.3172 19.6083 17.2222C19.3474 17.1274 19.1577 17.08 18.968 17.3646C18.7783 17.6493 18.2329 18.2901 18.0669 18.4799C17.9009 18.6697 17.7349 18.6935 17.4504 18.5511C17.1658 18.4088 16.2488 18.1084 15.1619 17.1393C14.3158 16.3851 13.7447 15.4537 13.5787 15.1689C13.4127 14.8842 13.561 14.7302 13.7035 14.5884C13.8315 14.4609 13.9881 14.2562 14.1304 14.0901C14.2727 13.9241 14.3201 13.8053 14.415 13.6156C14.5098 13.4257 14.4623 13.2597 14.3912 13.1173C14.3201 12.9749 13.751 11.5748 13.5138 11.0053C13.2828 10.4507 13.0482 10.5258 12.8735 10.517C12.7077 10.5088 12.5178 10.507 12.3281 10.507C12.1384 10.507 11.8301 10.5781 11.5692 10.8629C11.3084 11.1476 10.5732 11.8358 10.5732 13.2358C10.5732 14.6359 11.5929 15.9883 11.7352 16.1782C11.8775 16.3681 13.7419 19.241 16.5966 20.4731C17.2756 20.7662 17.8057 20.9412 18.219 21.0723C18.9007 21.2888 19.521 21.2583 20.0114 21.185C20.5582 21.1033 21.6951 20.4969 21.9322 19.8326C22.1694 19.168 22.1694 18.5985 22.0982 18.4799Z" fill="white"/>
</svg>
