<svg width="32" height="32" viewBox="0 0 32 32" fill="none" xmlns="http://www.w3.org/2000/svg">
<path fill-rule="evenodd" clip-rule="evenodd" d="M25.3904 7.84733C26.4184 8.1241 27.2289 8.93464 27.5057 9.96265C28.0197 11.8407 27.9999 15.755 27.9999 15.755C27.9999 15.755 27.9999 19.6496 27.5057 21.5277C27.2289 22.5557 26.4184 23.3662 25.3904 23.643C23.5123 24.1372 15.9999 24.1372 15.9999 24.1372C15.9999 24.1372 8.50739 24.1372 6.60954 23.6232C5.58154 23.3464 4.771 22.5359 4.49423 21.5079C4 19.6496 4 15.7353 4 15.7353C4 15.7353 4 11.8407 4.49423 9.96265C4.771 8.93464 5.60131 8.10433 6.60954 7.82756C8.48763 7.33333 15.9999 7.33333 15.9999 7.33333C15.9999 7.33333 23.5123 7.33333 25.3904 7.84733ZM19.8549 15.598L13.6079 19.196V12L19.8549 15.598Z" fill="#0E3F8B"/>
</svg>
