<svg width="32" height="32" viewBox="0 0 32 32" fill="none" xmlns="http://www.w3.org/2000/svg">
<path d="M16.0005 4.36364C12.8404 4.36364 12.4438 4.37745 11.2026 4.43394C9.96384 4.49067 9.11829 4.68679 8.37843 4.97455C7.61312 5.27176 6.96393 5.66933 6.31716 6.31636C5.66991 6.96315 5.27235 7.61236 4.97417 8.37745C4.6857 9.11757 4.48934 9.96339 4.43358 11.2017C4.37807 12.4429 4.36353 12.8398 4.36353 16C4.36353 19.1602 4.37759 19.5556 4.43383 20.7968C4.49079 22.0356 4.68691 22.8812 4.97442 23.6211C5.27186 24.3864 5.66943 25.0356 6.31644 25.6824C6.96296 26.3297 7.61215 26.7282 8.37698 27.0255C9.11732 27.3132 9.96311 27.5093 11.2016 27.5661C12.4428 27.6225 12.8391 27.6364 15.9991 27.6364C19.1594 27.6364 19.5548 27.6225 20.796 27.5661C22.0347 27.5093 22.8813 27.3132 23.6216 27.0255C24.3867 26.7282 25.0349 26.3297 25.6814 25.6824C26.3287 25.0356 26.7262 24.3864 27.0244 23.6213C27.3105 22.8812 27.5068 22.0354 27.565 20.7971C27.6208 19.5559 27.6353 19.1602 27.6353 16C27.6353 12.8398 27.6208 12.4431 27.565 11.2019C27.5068 9.96315 27.3105 9.11757 27.0244 8.3777C26.7262 7.61236 26.3287 6.96315 25.6814 6.31636C25.0342 5.66909 24.3869 5.27151 23.6209 4.97455C22.8791 4.68679 22.033 4.49067 20.7943 4.43394C19.5531 4.37745 19.158 4.36364 15.9969 4.36364H16.0005ZM14.9567 6.46061C15.2665 6.46012 15.6122 6.46061 16.0005 6.46061C19.1073 6.46061 19.4756 6.47176 20.7024 6.52751C21.8369 6.57939 22.4527 6.76897 22.8628 6.92824C23.4059 7.13915 23.793 7.39127 24.2 7.79854C24.6073 8.20582 24.8594 8.5937 25.0708 9.13673C25.23 9.54642 25.4199 10.1622 25.4715 11.2967C25.5272 12.5234 25.5394 12.8919 25.5394 15.9973C25.5394 19.1028 25.5272 19.4713 25.4715 20.6979C25.4196 21.8325 25.23 22.4482 25.0708 22.8579C24.8599 23.401 24.6073 23.7876 24.2 24.1947C23.7928 24.6019 23.4061 24.8541 22.8628 25.065C22.4532 25.225 21.8369 25.4141 20.7024 25.4659C19.4758 25.5217 19.1073 25.5338 16.0005 25.5338C12.8934 25.5338 12.5252 25.5217 11.2986 25.4659C10.1641 25.4136 9.54834 25.224 9.13793 25.0647C8.59491 24.8538 8.20704 24.6017 7.79978 24.1944C7.39252 23.7871 7.14041 23.4002 6.92902 22.857C6.76976 22.4473 6.57994 21.8315 6.52831 20.697C6.47255 19.4703 6.4614 19.1018 6.4614 15.9944C6.4614 12.887 6.47255 12.5205 6.52831 11.2938C6.58019 10.1593 6.76976 9.54351 6.92902 9.13333C7.13993 8.5903 7.39252 8.20242 7.79978 7.79515C8.20704 7.38788 8.59491 7.13576 9.13793 6.92436C9.5481 6.76436 10.1641 6.57527 11.2986 6.52315C12.372 6.47467 12.788 6.46012 14.9567 6.4577V6.46061ZM22.2117 8.39273C21.4408 8.39273 20.8154 9.01745 20.8154 9.7886C20.8154 10.5595 21.4408 11.185 22.2117 11.185C22.9826 11.185 23.608 10.5595 23.608 9.7886C23.608 9.0177 22.9826 8.39224 22.2117 8.39224V8.39273ZM16.0005 10.0242C12.7005 10.0242 10.0249 12.6999 10.0249 16C10.0249 19.3001 12.7005 21.9745 16.0005 21.9745C19.3005 21.9745 21.9751 19.3001 21.9751 16C21.9751 12.6999 19.3003 10.0242 16.0003 10.0242H16.0005ZM16.0005 12.1212C18.1425 12.1212 19.8792 13.8577 19.8792 16C19.8792 18.1421 18.1425 19.8788 16.0005 19.8788C13.8583 19.8788 12.1218 18.1421 12.1218 16C12.1218 13.8577 13.8583 12.1212 16.0005 12.1212Z" fill="#0E3F8B"/>
</svg>
